<?xml version="1.0" encoding="utf-8"?>
<!-- Generator: Adobe Illustrator 25.2.3, SVG Export Plug-In . SVG Version: 6.00 Build 0)  -->
<svg version="1.1" id="Livello_11" xmlns="http://www.w3.org/2000/svg" xmlns:xlink="http://www.w3.org/1999/xlink" x="0px" y="0px"
	 viewBox="0 0 530.7 559.8" style="enable-background:new 0 0 530.7 559.8;" xml:space="preserve">
<style type="text/css">
	.st0{clip-path:url(#SVGID_2_);}
	.st1{fill:none;}
	.st2{fill:#E2DFD5;}
	.st3{fill:#E8E4DA;}
	.st4{fill:#D6D0B9;}
	.st5{fill:#ECE9DD;}
	.st6{fill:#EFECE4;}
	.st7{opacity:0.35;fill:url(#SVGID_3_);enable-background:new    ;}
	.st8{fill:#FBD5B5;}
	.st9{fill:#408FDD;}
	.st10{fill:#599BAA;}
	.st11{fill:#F2D4AF;}
	.st12{fill:#AEAEAF;}
	.st13{fill:#757575;}
	.st14{fill:#F9F9F9;}
	.st15{fill:#D1B69D;}
	.st16{opacity:0.15;}
	.st17{fill:#1D1D1B;}
	.st18{fill:#FFFFFF;}
	.st19{fill:#FF9E88;}
	.st20{opacity:0.1;fill:url(#SVGID_4_);enable-background:new    ;}
	.st21{opacity:0.3;}
	.st22{fill:#C67160;}
	.st23{fill:#F4ECEA;}
	.st24{opacity:0.1;}
	.st25{fill:#EA9081;}
	.st26{fill:#DD877C;}
	.st27{opacity:0.8;fill:#B2B28D;enable-background:new    ;}
	.st28{fill:#755747;}
	.st29{opacity:0.1;fill:url(#SVGID_5_);enable-background:new    ;}
	.st30{opacity:0.1;fill:url(#SVGID_6_);enable-background:new    ;}
	.st31{opacity:0.65;}
	.st32{fill:#020202;}
</style>
<g>
	<g>
		<defs>
			<ellipse id="SVGID_1_" cx="265.3" cy="279.9" rx="264.8" ry="279.4"/>
		</defs>
		<clipPath id="SVGID_2_">
			<use xlink:href="#SVGID_1_"  style="overflow:visible;"/>
		</clipPath>
		<g class="st0">
			<path class="st1" d="M10.5,445.8c-0.7,7-1.2,15.1-1.5,23.6"/>
			<path class="st1" d="M329.8,544.2c-2.1-7.3-3.6-14.8-4.3-22.4"/>
			<path class="st1" d="M339.2,452.1c-2.2,4.1-4.1,8.3-5.8,12.6"/>
			<path class="st1" d="M-0.8,405.9c-7.5-10.5-20.9-33.2-16.1-36.1"/>
			<path class="st1" d="M1.6,469.8c-0.1-2.2-0.2-4.4-0.2-6.7"/>
			<path class="st1" d="M142.4,242.6c-8,3.3-16,6.6-24,9.8"/>
			<path class="st2" d="M121.5,221.8c-1.3,10.2-2.4,20.3-3.1,30.5c-16.2,6.6-32.4,13.3-48.6,19.9c-14.5,5.9-29,11.9-41.9,20.7
				c-6.7,4.5-13,9.9-17.7,16.4C-3.1,327.6-2.8,352-2,374.5c0.4,10.4,0.8,20.9,1.2,31.3c0,1.2,0.1,2.3,0.1,3.5
				c-2.8,4.7-3.3,10.4-3.5,15.9c-0.2,8.5,0.3,17.1,1.6,25.5c0.6,4.3,1.5,8.8,3.9,12.4c0.3,0.4,0.6,0.8,0.9,1.2
				c1.8,2.2,4.2,3.9,6.8,5c-0.8,21.8-0.6,46.9,0.7,66.9c-22.8-10.5-45.3-21.8-67.5-33.6c-1.5-20-3-40.1-4.5-60.1
				c-2.1-28.2-4.2-56.6-3.3-84.9c0.6-19.4,3.1-39.8,15-55c11-14,28.2-21.4,44.7-28.2C36.6,256.9,79,239.4,121.5,221.8z"/>
			<path class="st1" d="M143.7,212.7c-7.4,3.1-14.8,6.1-22.2,9.2"/>
			<path class="st1" d="M117.1,377.2c-1.1-3.9-2-8.8-2.5-14.4"/>
			<path class="st3" d="M465.3,483.9c-6.7,9.2-13.3,18.4-19.5,27.9c-5.5,8.6-10.8,17.5-15.1,26.7c-0.5,1.1-1,2.3-1.5,3.6
				c-34.5-7.2-69.1-13.9-103.7-20.2c-1.9-19.3,0.8-39,7.9-57.1c6,0.9,12,1.7,17.9,2.6C389.4,472.8,427.3,478.3,465.3,483.9z"/>
			<path class="st2" d="M429.2,542c-2.3,6.3-3.8,14-7.5,18.9c-9.8,13.2-36.6,21.3-51.5,26.2c-19.3,6.3-39.3,9.9-59.5,11.9
				c-79.8,8-160.5-7.9-235.8-35.5c-22.2-8.1-43.9-17.3-65.3-27.1c-1.3-20-1.6-45.2-0.7-66.9c4.1,1.9,8.9,2.7,13.4,3.4
				c101.2,15.3,202.4,30.6,303.1,49C360.2,528.1,394.8,534.8,429.2,542z"/>
			<path class="st3" d="M325.5,521.8c-100.7-18.4-201.9-33.7-303.1-49c-4.5-0.7-9.3-1.5-13.4-3.4c-2.6-1.2-4.9-2.8-6.8-5
				c-0.3-0.4-0.6-0.8-0.9-1.2c-2.4-3.6-3.3-8.1-3.9-12.4c-1.2-8.5-1.8-17-1.6-25.5c0.1-5.5,0.7-11.2,3.5-15.9v-0.1
				c0.3-0.6,0.7-1.1,1.1-1.6c1,1.3,1.9,2.3,2.5,2.9c4.8,4.7,11.9,6,18.5,7.1c89,14.7,178.4,27.7,267.7,40.6
				c14.8,2.1,29.5,4.3,44.3,6.4C326.4,482.8,323.7,502.5,325.5,521.8z"/>
			<path class="st3" d="M114.6,362.8C80.2,373.3,24,391.4,12.7,398.1c-4.5,2.7-9.1,5.5-12.2,9.6c-0.4-0.5-0.8-1.1-1.3-1.8
				C-1.2,395.4-1.6,385-2,374.5c-0.8-22.5-1.2-46.9,12.1-65.1c4.8-6.5,11-11.9,17.7-16.4c12.9-8.8,27.5-14.8,41.9-20.7
				c16.2-6.6,32.4-13.3,48.6-19.9C117.8,260.5,110.9,326.4,114.6,362.8z"/>
			<path class="st4" d="M516.5,404.7L516.5,404.7c-38-4.1-75.9-8.2-113.8-12.3c-107.3-11.6-165.6-15.9-272-34.5
				c-4.4,1.3-9.9,3-16.1,4.9c-3.7-36.4,3.2-102.2,3.8-110.4c0.7-10.2,1.8-20.4,3.1-30.5c3.1-23.8,8-47.4,14.4-70.6
				c1-3.4,2.1-7,4.7-9.5c4.2-3.8,10.6-3.4,16.2-2.6c53.3,7,106.1,17.3,159.6,23c75.5,8.1,151.6,6.9,227.3,12.6
				c9,0.7,17.9,1.4,26.8,2.3C574.7,255.7,553.8,334.6,516.5,404.7z"/>
			<path class="st5" d="M516.5,404.7c-10.6,19.9-22.5,39.2-35.5,57.5c-5.2,7.3-10.5,14.4-15.7,21.6c-38-5.5-76-11-114-16.5
				c-6-0.9-12-1.7-17.9-2.6c-14.8-2.1-29.5-4.3-44.3-6.4c-89.3-13-178.7-25.9-267.7-40.6c-6.6-1.1-13.7-2.4-18.5-7.1
				c-0.6-0.6-1.4-1.6-2.5-2.9c3.1-4.1,7.7-6.9,12.2-9.6c11.3-6.7,67.6-24.8,101.9-35.3c6.2-1.9,11.7-3.6,16.1-4.9
				c106.4,18.6,164.7,22.9,272,34.5C440.6,396.5,478.6,400.6,516.5,404.7z"/>
			<path class="st6" d="M516.5,404.7L516.5,404.7c-38-4.1-75.9-8.2-113.8-12.3c-107.3-11.6-165.6-15.9-272-34.5
				c-4.4,1.3-9.9,3-16.1,4.9c-3.7-36.4,3.2-102.2,3.8-110.4c0.7-10.2,1.8-20.4,3.1-30.5c3.1-23.8,8-47.4,14.4-70.6
				c1-3.4,2.1-7,4.7-9.5c4.2-3.8,10.6-3.4,16.2-2.6c53.3,7,106.1,17.3,159.6,23c75.5,8.1,151.6,6.9,227.3,12.6
				c9,0.7,17.9,1.4,26.8,2.3C574.7,255.7,553.8,334.6,516.5,404.7z"/>
			
				<radialGradient id="SVGID_3_" cx="24.8582" cy="-2078.6357" r="118.6759" gradientTransform="matrix(1.1287 0 0 -1.2999 314.2161 -2384.7136)" gradientUnits="userSpaceOnUse">
				<stop  offset="0" style="stop-color:#000000"/>
				<stop  offset="1" style="stop-color:#000000;stop-opacity:0"/>
			</radialGradient>
			<path class="st7" d="M478.8,317.3c0,90.6-74.5,164-166.3,164s-106.9-65.6-106.9-156.1s15.1-171.8,106.9-171.8
				S478.8,226.8,478.8,317.3z"/>
			<path class="st8" d="M333.9,122c-3.5,11.7-9,23.1-19.5,28.2c-5.2,2.6-10.3,3.9-14.9,2.6l0,0c-2-0.5-3.8-1.5-5.6-3.1l0,0
				c-0.8-0.7-1.5-1.5-2.3-2.5c-3.2-4.2-5.5-9.4-8.4-13.8c-0.3-0.4-0.6-0.9-0.8-1.3c-2.3-3.7-4-7.5-5.1-11.7
				c-1.7-6.4-2.3-12-1.7-18.7c0.6-6.2,0.1-12.6,0.7-18.7c0.3-3.2,0.8-7.5,3.4-9.9c2.7-2.4,7.1-2.3,10.4-2.5c2.2-0.1,4.4-0.5,6.6-0.8
				c2.6,2.4,5.7,4.6,8.5,6.5c5.7,3.9,11.1,8,17.3,11c3.2,1.5,6.4,3.1,9.6,4.6c0.4,1.4,0.7,2.7,0.9,4.1
				C334.6,104.7,334.4,113.4,333.9,122z"/>
			<path class="st8" d="M333.9,122c-0.3,5.4-0.8,10.7-1.2,16.1c-0.4,6.1-0.8,12.3-1,18.5c-1.6,1.2-3.2,2.3-5.1,3
				c-1.8,0.7-3.8,1.1-5.7,1.5c-5,1.1-11.7,0.6-17.3-1.7c-1.5-2-2.9-4.2-4.1-6.4c4.6,1.3,9.7-0.1,14.9-2.6
				C324.9,145.1,330.4,133.7,333.9,122z"/>
			<path class="st8" d="M238.7,315.7l-29.5-3.1c2.1-3.3,5.9-6.6,8.5-7.5C227.4,301.8,233.9,308.2,238.7,315.7z"/>
			<path class="st9" d="M287.6,352.7c-0.9,0.2-1.9,1.6-2.8,2.9c-0.7-0.2-1.4-0.3-2.1-0.4c-1-0.2-2-0.3-3-0.4c1.3-1.2,3.7-2.7,5.3-3
				L287.6,352.7z"/>
			<path class="st8" d="M361.7,348.5c-0.5,1.4-1.6,2.4-2.9,3.2l0,0c-1.3,0.7-2.9,1.2-4.3,1.4c-0.8,0.1-1.6,0.2-2.5,0.3
				c-1.4,0.1-2.7,0.2-4.1,0.4c-4.3,0.6-8.6,0.7-12.9,0.9c-5.5,0.3-11,1-16.5,1.5c-3.6,0.3-7.1,0-10.6,0.9c-1.1,0.3-2.3,0.7-3.4,1.2
				c-0.1,0.1-0.3,0.1-0.4,0.2c-2.9,1.2-6.2,2.4-9.4,1.6c-1.2-0.3-2.3-0.9-3.3-1.6c-0.3,0.3-0.6,0.6-0.9,0.9
				c-2.3,2.4-3.3,5.2-6.8,6.2c-3,0.8-4.8-0.9-3.2-3.7c0.9-1.6,2.2-3.1,3.3-4.5c0.3-0.4,0.7-0.9,1.1-1.6c-0.7-0.2-1.4-0.3-2.1-0.4
				c-1-0.2-2-0.3-3-0.4c-0.1,0.1-0.2,0.1-0.2,0.2c-2.3,2.2-3.4,5.8-5.1,8.5l-3.4-10.6l-2.9-9l-1.6-4.9c1.4-1.4,2.9-2.6,5.5-2.6
				c6,0,11.7,2.2,17.8,2.1c5.8-0.1,11.6-1.9,17-4.1c4.1-1.6,8.3-3.1,12.6-3.7c4.5-0.5,8.7-1.4,13-2.8c5.6-1.8,11.4-3.7,16.9-6
				c0.7-0.3,1.4-0.6,2-0.9c3.2-2.9,6.3,2.2,7.5,4.6c2.4,4.8,3.8,10.4,4,15.8C362.6,343.8,362.5,346.3,361.7,348.5z"/>
			<path class="st10" d="M375.7,414.5c-5.2,16.3-21.3,27.1-38,30.9c-7.6,1.7-15.4,2.2-23.1,2.5c-0.7,0-1.4,0.1-2.1,0.1
				c-17.9,0.8-36.1,1-53.5-3.3c-14.2-3.5-28-10.3-38.2-20.6c-0.2-0.2-0.4-0.4-0.6-0.6c0-3.2,0.2-6.5,0.9-9.6
				c0.6-2.6,1.5-5.2,2.8-7.6c7.4,0.5,15.4-1.6,22.2-3.6c4.9-1.5,9.7-3.2,14.5-5c3-1.1,5.9-2.2,8.9-3.2c2.9-1,5.9-1.9,8.9-2.7
				c1.5-0.4,3.1-0.8,4.6-1.1c1.4-0.3,2.7-0.5,4.1-0.7c2.3-0.3,4.7-0.5,7-0.6l34.4-26.2c0.5-0.4,0.6-1.1,0.2-1.6
				c-0.2-0.3-0.5-0.5-0.8-0.5l-24.1-2.5c0.1-0.1,0.3-0.1,0.4-0.2c1.1-0.5,2.2-0.9,3.4-1.2c3.5-0.9,7-0.6,10.6-0.9
				c5.5-0.5,11-1.2,16.5-1.5c4.3-0.2,8.6-0.3,12.9-0.9c1.4-0.2,2.7-0.3,4.1-0.4c5.5,2.6,10.8,5.9,15.5,9.8c1.1,3.1,2.3,6.1,3.5,9.1
				C376.1,385.7,380.1,400.7,375.7,414.5z"/>
			<path class="st10" d="M220.2,424.6c-8.2,8.4-13.6,16.2-17.4,28.4c-11.4-4.1-23.3-7-34.9-10.3l0,0c-10.3-2.9-20.4-6.2-29.9-10.8
				c-4.4-2.1-8.7-4.4-13-6.9c-1.3-0.7-2.6-1.5-3.8-2.2c-16.8-9.7-33.8-20.5-44.2-36.9c-1.9-3-3.6-6.2-4.1-9.7
				c-0.9-5.7,1.3-11.4,3.5-16.7c1.9-4.6,4.1-9.4,8.2-12.3c3-2.2,6.7-3.1,10.4-3.8c12.8-2.3,26-2.3,38.7,0l14.1,32.4
				c2.6,1.2,5.2,2.3,7.8,3.4c5.2,2.2,10.5,4.4,15.6,6.9l0,0c0.4,0.2,0.7,0.3,1,0.5c9.9,5,18.9,11.3,27.5,18.2l0,0
				c7.1,5.8,13.9,12.1,20.6,18.4C220.2,423.9,220.2,424.2,220.2,424.6z"/>
			<path class="st11" d="M331.2,468c-0.4,0.4-0.8,0.7-1.4,0.8c-0.5,0.1-1,0-1.5,0c-1.9-0.2-3.8-0.5-5.7-0.8c1.3-1.8,1.3-4.3,0.7-6.5
				c-0.3-1.1-0.7-2.2-1.3-3.3c0.8,0.1,1.6,0.1,2.5,0.2c2.4,0.2,4.9,1.1,6.5,3C332.7,463.2,333,466.3,331.2,468z"/>
			<path class="st8" d="M322.7,467.9c-0.1,0.1-0.2,0.3-0.3,0.4c-2.2,2.3-6.1,1.8-8.8,0.1c-0.9-0.6-1.8-1.3-2.6-2.1
				c-1.9-0.1-3.7-0.2-5.6-0.2c-7.8,0.2-15.4,1.9-23.2,2.5c-12.4,0.9-24.8-1.1-37.1-3.2c-4.5-0.7-9-1.5-13.3-2.6s-8.5-2.6-12.7-4
				c-5.4-1.9-10.8-3.8-16.2-5.9c3.8-12.2,9.2-20.1,17.4-28.4c0.2-0.2,0.4-0.4,0.6-0.6l0,0c10.2,10.3,24,17.1,38.2,20.6
				c17.4,4.3,35.6,4.1,53.5,3.3c3.8,2.8,7.5,6.1,9.6,10.2c0.6,1,1,2.1,1.3,3.3C324,463.6,324,466.2,322.7,467.9z"/>
			<path class="st1" d="M312.5,448c-0.1-0.1-0.1-0.1-0.2-0.1"/>
			<path class="st8" d="M167.9,442.7c-10.5,0.8-20.7,4.9-28.9,11.6c-1.5,1.3-3.1,2.7-5.1,3s-4.4-1-4.2-3c-1.7,1.3-4.2,1.6-6,0.4
				c-1.7-1.2-2.2-4-0.8-5.5c-1.9,1.4-4.2,2.8-6.3,1.8c-2-1-2.4-3.9-1.5-5.9c0.5-1.1,1.4-2,2.3-2.8c0,0,0,0-0.1,0
				c-2-1.5-2.7-4.3-2.2-6.8c0.6-2.4,2.2-4.5,4-6.2c1.7-1.6,3.7-2.8,5.6-4.2c4.3,2.4,8.5,4.8,13,6.9
				C147.5,436.5,157.6,439.8,167.9,442.7z"/>
			<path class="st1" d="M199.7,311.6c0,0.1,0,0.2,0,0.3c-0.1-0.1-0.1-0.2-0.2-0.3H199.7z"/>
			<path class="st12" d="M269.5,394.3c-3,1-6,2.1-8.9,3.2l-89.5-11.2l0,0c-5.1-2.5-10.3-4.7-15.6-6.9L269.5,394.3z"/>
			<path class="st8" d="M223.9,406.1c-1.3,2.4-2.2,5-2.8,7.6c-0.7,3.2-0.9,6.4-0.9,9.6c0,0.1,0,0.1,0,0.2
				c-6.7-6.4-13.5-12.7-20.6-18.4c6.6-1,13.2-1.2,19.7,0.4C220.8,405.8,222.3,406,223.9,406.1z"/>
			<path class="st10" d="M260.6,397.5c-4.8,1.7-9.6,3.5-14.5,5c-6.8,2-14.8,4.2-22.2,3.6c-1.6-0.1-3.1-0.3-4.6-0.7
				c-6.4-1.6-13.1-1.4-19.7-0.4l0,0c-8.6-7-17.6-13.3-27.5-18.2c-0.3-0.2-0.7-0.3-1-0.5L260.6,397.5z"/>
			<path class="st12" d="M328.6,363l-34.4,26.2c-2.3,0.1-4.7,0.3-7,0.6l41.7-28.5C329.1,361.8,329.1,362.5,328.6,363z"/>
			<polygon class="st13" points="302.9,375.3 282.4,388.3 276.7,370.8 			"/>
			<path class="st14" d="M328.8,361.4l-41.7,28.5c-1.4,0.2-2.7,0.4-4.1,0.7l-0.7-2.2l20.5-13.1l-26.2-4.4l-2.4-7.3
				c1.7-2.8,2.8-6.4,5.1-8.5c0.1-0.1,0.2-0.1,0.2-0.2c1,0.1,2,0.2,3,0.4c0.7,0.1,1.4,0.3,2.1,0.4c-0.4,0.6-0.8,1.2-1.1,1.6
				c-1.1,1.4-2.4,2.9-3.3,4.5c-1.6,2.9,0.2,4.6,3.2,3.7c3.5-1,4.5-3.7,6.8-6.2c0.3-0.3,0.6-0.6,0.9-0.9c1,0.7,2.1,1.3,3.3,1.6
				c3.2,0.8,6.5-0.4,9.4-1.6l24.1,2.5C328.4,360.9,328.6,361.1,328.8,361.4z"/>
			<path class="st15" d="M287.6,352.7c-0.9,0.2-1.9,1.6-2.8,2.9c-0.7-0.2-1.4-0.3-2.1-0.4c-1-0.2-2-0.3-3-0.4c1.3-1.2,3.7-2.7,5.3-3
				L287.6,352.7z"/>
			<g class="st16">
				<path class="st17" d="M274.1,340.5c-1.6,1.7-3.7,2.6-5.7,3.6c-0.5,0.2-1,0.5-1.5,0.7c-0.5,0.3-1,0.5-1.4,0.8
					c-0.8,0.6-1.6,1.5-2.3,2.3c0.4-1.1,0.9-2.1,1.8-3s1.9-1.3,2.9-1.9c1-0.5,2-0.9,3.1-1.3C272.1,341.4,273.1,340.9,274.1,340.5z"/>
			</g>
			<path class="st18" d="M283.1,390.5c-1.6,0.3-3.1,0.7-4.6,1.1c-3,0.8-6,1.7-8.9,2.7l-114-14.9c-2.6-1.1-5.2-2.2-7.8-3.4
				l-14.1-32.4l-15-34.5c-1.2-2.8,1-5.8,4-5.5l73.7,7.7l3,0.3c0.1,0.1,0.1,0.2,0.2,0.3c0-0.1,0-0.2,0-0.3l9.6,1l29.5,3.1l1.9,0.2
				l13.2,1.4c3.5,0.4,6.4,2.7,7.5,6l5,15.6l1.6,4.9l2.9,9l3.4,10.6l2.4,7.3l5.7,17.5L283.1,390.5z"/>
			<g>
				<path class="st19" d="M420.5,274c0-0.1,0-0.2,0-0.3c-1.3-7.8-3.2-14.8-3-22.9c0.1-8.6,1.5-17.1,2.5-25.6
					c1.3-11.2,5-29.8-6.2-37.1c-2.3-1.5-5.5-2.7-7.5-4.5c-0.3-0.3-0.6-0.6-0.9-0.9c-3.8-4.6-8.9-8.2-13.9-11.4
					c-3.7-2.4-7.4-4.7-11.2-6.9c-2-1.2-4.1-2.1-6.2-3c-0.6,5.4-1.5,10.9-2.5,16.3c-3.1,17.8-8.1,34.4-14.8,51.1
					c-4.8,11.9-9.7,23-20.4,30.9c-1.4-5-3.4-9.6-5.5-14.3c1.6-2.6,2.6-6.8,2.5-9.2c-1.3,1.7-3.3,2.4-5.2,3.2c-0.5-1.1-1-2.3-1.4-3.5
					c10.8-11.2,11.5-24.6,9.3-39.6c-0.4-2.8-0.9-5.5-1.4-8.2c-5.7,3.3-11.7,5.3-18.6,6.2c-8.9,1.2-17.5,0.2-25.1-4.7
					c-3.4-2.2-6.9-4.6-9.8-7.5c-2.1-2.2-3.9-4.8-5.7-7.2c-0.5,6.6-0.4,13.3,1,19.8c2.4,11.7,13.9,21.6,13.8,33.4
					c-0.1,4.5-6.4,8-10.7,9.3l0,0c-7.3-5.6-13.2-12.9-17.1-21.2c-0.7,7.7,1.6,15.6,6.1,21.8c-0.8,0-1.5,0.1-2.2,0.1
					c-4.2,0.5-8.1,1-10.9,4.3c-2.3-2.3-4.2-4.5-5.8-6.7c-2.8-4-4.5-8.2-5.2-14c0-0.1,0-0.1,0-0.2c-0.8-5.6-1.2-10.9-0.4-16.6
					c1.5-11,6.4-20.9,9.8-31.4c1.8-5.7,3.1-11.6,4.1-17.5c-3.8,2.3-7.4,5.1-11.5,7.2c-5.7,2.9-11.1,6.4-16.9,9.3
					c-0.3,0.2-0.7,0.4-1,0.5c-6.4,3.1-9.2,7.3-10.5,14.5c-1,5.9-1.4,11.8-1.5,17.8c-0.1,5,0.7,11.1-1,15.8c-0.7,2.1-1.9,4-2.8,6.1
					c-1.8,4.2-2.2,8.7-1.6,13.2c0.7,5.8-0.6,3.7-4.7,7c-8.6,6.8,2.7,16.3-2.2,24.8c-2.3,4-6,5.8-6.6,10.6c-0.4,2.9,0.1,5.8-0.8,8.6
					c-0.7,2.2-1.8,4.1-2.2,6.4c-0.6,3.4,0.5,6.5,2.2,9.3c0.6-5.4,3.1-10.7,7-14.6c5.1-5.1,12.3-7.8,19.5-7.8
					c6.7,0,13.5,2.5,17.9,7.5c2.4,2.8,4,6.3,4.4,9.9c-2.3,4.1-3.9,9-4.7,13.7l13.2,1.4c3.5,0.4,6.4,2.7,7.5,6l5,15.6
					c1.4-1.4,2.9-2.6,5.5-2.6c6,0,11.7,2.2,17.8,2.1c5.8-0.1,11.6-1.9,17-4.1c4.1-1.6,8.3-3.1,12.6-3.7c4.5-0.5,8.7-1.4,13-2.8
					c5.6-1.8,11.4-3.7,16.9-6c0.5-1.7,1.5-3.3,2.5-4.5c1.5-1.8,3.7-2,5.9-2.3c0.5-0.1,1.1-0.1,1.6-0.2c2.7-0.5,4.7-1.8,7-3.3
					c1.6-1,3.5-2.1,5.5-1.5c4.3,1.4,7.6,6.1,9.2,10.1c2,4.9,4.1,10.1,4,15.5c0,2.7,0.3,7.2-1.8,9.2c-1.3,1.3-3.6,1.6-5.7,2
					c0.4,0.2,0.9,0.4,1.3,0.6c1.6,0.9,3.5,2.2,5.3,2.4c1.9,0.2,3.8-0.6,5.6-1.3c2.7-1,5.4-2,8-3.5c2-1.2,3.9-1.8,5.3-3.7
					c2.4-3.4,3.2-7.5,4.7-11.4c2.5-6.6,9.7-10.3,11.4-17c0.4-1.6,0.7-3.3,0.5-5c-0.4-2.4-2-4.8-1.9-7.2
					C417.9,291.5,422.1,283.7,420.5,274z"/>
				<path class="st19" d="M358.7,351.7L358.7,351.7c-1.3,0.7-2.9,1.2-4.3,1.4c-0.8,0.1-1.6,0.2-2.5,0.3c5.5,2.6,10.8,5.9,15.5,9.8
					c-1.2-3.5-2.2-7.1-2.7-10.8C362.6,353.1,360.4,353.2,358.7,351.7z"/>
			</g>
			
				<linearGradient id="SVGID_4_" gradientUnits="userSpaceOnUse" x1="200.7332" y1="212.0486" x2="200.7332" y2="168.0331" gradientTransform="matrix(1 0 0 -1 0 561.2756)">
				<stop  offset="0" style="stop-color:#FFFFFF"/>
				<stop  offset="1" style="stop-color:#000000"/>
			</linearGradient>
			<path class="st20" d="M283.1,390.5c-1.6,0.3-3.1,0.7-4.6,1.1c-3,0.8-6,1.7-8.9,2.7l-114-14.9c-2.6-1.1-5.2-2.2-7.8-3.4
				l-14.1-32.4l-15-34.5c-1.2-2.8,1-5.8,4-5.5l73.7,7.7l3,0.3c0.1,0.1,0.1,0.2,0.2,0.3c0-0.1,0-0.2,0-0.3l9.6,1l29.5,3.1l1.9,0.2
				l13.2,1.4c3.5,0.4,6.4,2.7,7.5,6l5,15.6l1.6,4.9l2.9,9l3.4,10.6l2.4,7.3l5.7,17.5L283.1,390.5z"/>
			<g class="st21">
				<path class="st17" d="M290.9,126.6c0.7,0.8,1.4,1.5,2.3,2c0.8,0.5,1.7,0.8,2.7,0.9c1.9,0.3,3.9-0.3,6-0.5
					c-0.9,0.5-1.9,1-2.9,1.3s-2.1,0.4-3.2,0.3c-1.1-0.1-2.2-0.6-3-1.3C291.8,128.5,291.2,127.5,290.9,126.6z"/>
			</g>
			<path class="st22" d="M312.4,134.3c-0.5,0.1-1,0.2-1.4,0.4c-3,0.7-6,1.3-9.1,1.4c-3.6,0.2-7.3-0.3-10.6-1.7
				c-0.8-0.3-1.5-0.7-2.2-1.1c-0.1,0-0.1-0.1-0.2-0.1h0.1c0.5-0.1,1.1-0.2,1.6-0.2c0.6,0,1.1,0.1,1.7,0.2c1,0.2,2,0.7,3,1
				c1.7,0.4,3.5,0.2,5.3,0c3.6-0.3,7.2-0.3,10.7,0.2C311.8,134.2,312.1,134.3,312.4,134.3z"/>
			<path class="st23" d="M311,134.7c-3.6,3.7-9.3,5.5-14.3,4.3c-0.8-0.2-1.7-0.5-2.4-0.9c-1.4-0.9-2.3-2.2-3-3.7
				c3.3,1.4,7,1.9,10.6,1.7C305,135.9,308,135.4,311,134.7z"/>
			<path class="st22" d="M313.4,134.5c-1.6,3-3.9,5.6-6.8,7.2c-3.6,2.1-8.4,2.5-12,0.3c-3.1-1.8-4.9-5.2-5.5-8.8
				c0.7,0.4,1.4,0.8,2.2,1.1c0.7,1.5,1.6,2.9,3,3.7c0.7,0.5,1.6,0.7,2.4,0.9c5.1,1.2,10.7-0.6,14.3-4.3c0.5-0.1,1-0.2,1.4-0.4
				C312.7,134.4,313.1,134.4,313.4,134.5z"/>
			<g class="st21">
				<path class="st17" d="M316,129.9c0.8-0.1,1.6,0.2,2.2,0.7s1,1.3,0.9,2.1c-0.4-0.7-0.8-1.2-1.3-1.7
					C317.3,130.5,316.7,130.2,316,129.9z"/>
			</g>
			<g class="st21">
				<path class="st17" d="M285.2,126c-0.1,0.7-0.3,1.4-0.5,2.1l-0.2,1c-0.1,0.3-0.1,0.7-0.2,1.1c-0.1-0.4-0.2-0.7-0.2-1.1
					c0-0.4,0-0.7,0.1-1.1C284.3,127.3,284.6,126.6,285.2,126z"/>
			</g>
			<g class="st24">
				<path class="st17" d="M335.7,369.3c2.8-1,5.8-1.2,8.7-0.9c3,0.3,5.9,1.1,8.6,2.3c2.7,1.2,5.2,2.8,7.5,4.6
					c2.3,1.8,4.4,3.9,6.2,6.2c-2.4-1.6-4.8-3.3-7.2-4.8c-2.4-1.5-4.9-2.9-7.4-4.1s-5.2-2-8-2.6C341.4,369.5,338.6,369.2,335.7,369.3
					z"/>
			</g>
			<g class="st24">
				<path class="st17" d="M294.2,389.2c1.5-0.5,3-0.7,4.6-0.8c1.6-0.1,3.1,0,4.6,0.2s3.1,0.6,4.5,1.2c1.5,0.6,2.9,1.3,4.1,2.3
					c-1.6-0.2-3.1-0.4-4.5-0.7l-4.4-0.7l-4.4-0.7C297.2,389.8,295.7,389.6,294.2,389.2z"/>
			</g>
			<g class="st24">
				<path class="st17" d="M116,358.9c2.8,1.1,5.5,2.5,8.2,3.8c2.7,1.4,5.3,2.8,7.9,4.2c2.6,1.5,5.2,2.9,7.8,4.4s5.2,3,7.7,4.7
					c-2.9-0.8-5.7-1.9-8.5-3.2c-2.8-1.2-5.4-2.6-8.1-4c-2.6-1.5-5.2-3-7.7-4.7C120.8,362.5,118.4,360.8,116,358.9z"/>
			</g>
			<g class="st16">
				<path class="st17" d="M282.3,344.2c-1.6,1.7-3.7,2.6-5.7,3.6c-0.5,0.2-1,0.5-1.5,0.7c-0.5,0.3-1,0.5-1.4,0.8
					c-0.8,0.6-1.6,1.5-2.3,2.3c0.4-1.1,0.9-2.1,1.8-3s1.9-1.3,2.9-1.9c1-0.5,2-0.9,3.1-1.3C280.3,345.1,281.3,344.7,282.3,344.2z"/>
			</g>
			<g>
				<path class="st25" d="M331.7,156.6c-1.6,1.2-3.2,2.3-5.1,3c-1.8,0.7-3.8,1.1-5.7,1.5c-5,1.1-11.7,0.6-17.3-1.7
					c-1.5-2-2.9-4.2-4.1-6.4l0,0c-2-0.5-3.8-1.5-5.6-3.1l0,0c-0.8-0.7-1.5-1.5-2.3-2.5c-3.2-4.2-5.5-9.4-8.4-13.8
					c-0.3-0.4-0.6-0.9-0.8-1.3c-1.1,4.5-2.3,8.9-3.3,13.4c-1.4,6.5-1.9,13.1-2.8,19.7c-0.4,3.1-0.8,6.3-1,9.4
					c1.8,2.4,3.6,5.1,5.7,7.2c2.9,2.9,6.4,5.3,9.8,7.5c7.6,4.9,16.2,5.9,25.1,4.7c6.9-0.9,12.9-2.9,18.6-6.2
					c-0.9-5.3-1.9-10.6-2.4-16C331.7,166.9,331.6,161.7,331.7,156.6z"/>
				<path class="st25" d="M223,284.7c-7.2,0-14.4,2.7-19.5,7.8c-3.9,3.9-6.4,9.1-7,14.6c0.9,1.6,2,3.1,2.9,4.5h0.2l9.6,1
					c2.1-3.3,5.9-6.6,8.5-7.5c9.6-3.4,16.1,3.1,21,10.6l1.9,0.2c0.7-4.7,2.4-9.7,4.7-13.7c-0.4-3.6-2-7.2-4.4-9.9
					C236.5,287.3,229.6,284.8,223,284.7z"/>
				<path class="st25" d="M384.8,335.6c0-5.4-2.1-10.5-4-15.5c-1.6-3.9-4.9-8.7-9.2-10.1c-1.9-0.6-3.9,0.4-5.5,1.5
					c-2.3,1.5-4.2,2.8-7,3.3c-0.5,0.1-1.1,0.2-1.6,0.2c-2.2,0.3-4.4,0.5-5.9,2.3c-1,1.2-2,2.8-2.5,4.5c0.7-0.3,1.4-0.6,2-0.9
					c3.2-2.9,6.3,2.2,7.5,4.6c2.4,4.8,3.8,10.4,4,15.8c0.1,2.4-0.1,4.9-0.9,7.1c-0.5,1.4-1.6,2.4-2.9,3.2c1.7,1.5,3.8,1.4,6,0.7
					c3.4-1.1,7-3.9,9.6-4.9c0.8-0.3,1.9-0.5,2.9-0.7c2.1-0.4,4.4-0.7,5.7-2C385.1,342.8,384.8,338.3,384.8,335.6z"/>
			</g>
			<g class="st21">
				<path class="st17" d="M324.3,146.3c-2,1.8-4.3,3.4-6.8,4.7c-2.5,1.2-5.1,2.1-7.9,2.5c-2.7,0.4-5.5,0.5-8.3,0.1
					c-2.7-0.4-5.5-1.4-7.6-3.1c2.4,1.4,5,2,7.7,2.3c2.7,0.2,5.4,0.1,8-0.3C314.8,151.7,319.8,149.3,324.3,146.3z"/>
			</g>
			<g>
				<path class="st26" d="M365.1,316c-0.3-2.2,0.3-4.5,1.4-6.5s2.7-3.7,4.2-5.2s3.1-3.2,5.2-4.4c1-0.6,2.2-1,3.4-1.2
					c1.2-0.2,2.5-0.1,3.6,0c4.5,0.6,8.7,2,12.9,3.1c4.2,1.2,8.5,2.5,12.4,4.6c-4.2-1.3-8.5-2.1-12.8-3c-2.1-0.4-4.3-1-6.4-1.4
					c-2.1-0.5-4.2-1-6.3-1.2c-2.1-0.3-4-0.1-5.8,0.8s-3.3,2.4-5,3.8c-1.6,1.4-3.2,2.9-4.5,4.6C366.1,311.8,365.3,313.8,365.1,316z"
					/>
				<path class="st26" d="M263.3,313.7c1.4-0.6,2.7-1.4,4.1-1.9c0.7-0.3,1.4-0.5,2.2-0.7c0.8-0.2,1.5-0.2,2.3-0.3c3-0.2,6-0.2,9,0
					c3,0.1,6,0.5,8.9,0.6s5.9,0,8.8-0.3c2.9-0.2,5.8-0.6,8.7-1.3c2.9-0.6,5.7-1.5,8.5-2.4c5.6-1.8,11.4-3.8,17.4-4.4
					c-5.8,1.5-11.2,3.9-16.8,6c-2.8,1.1-5.7,2.1-8.6,2.8c-3,0.8-6,1.2-9,1.5c-3,0.2-6.1,0.3-9.1,0.1c-3.1-0.2-6-0.6-8.9-0.9
					c-3-0.3-5.9-0.6-8.9-0.6c-1.5,0-2.9,0-4.3,0.4C266.1,312.7,264.7,313.2,263.3,313.7z"/>
				<path class="st26" d="M273.6,295.4c0.4-1.8,1.4-3.5,2.7-4.8c1.3-1.4,2.8-2.5,4.4-3.4c3.2-1.9,6.6-3.4,9.3-5.5
					c1.4-1.1,2.5-2.4,3.3-3.9c0.9-1.6,1.6-3.2,2.4-4.9c1.5-3.3,2.9-6.7,4.5-10.1c3.6-6.6,7.6-12.6,11.8-18.7
					c4.2-6,8.6-11.9,13.2-17.6L313.3,245c-1.9,3.1-3.9,6.2-5.8,9.3c-1.9,3.1-3.9,6.2-5.5,9.4c-1.7,3.2-3,6.6-4.6,9.9
					c-0.8,1.7-1.6,3.3-2.6,4.9c-0.2,0.4-0.5,0.8-0.8,1.2l-0.4,0.6c-0.2,0.2-0.3,0.4-0.5,0.5c-0.7,0.7-1.4,1.3-2.2,1.9
					c-3.1,2.2-6.6,3.5-9.8,5.1c-1.6,0.8-3.2,1.7-4.5,2.9C275.3,292.2,274.2,293.6,273.6,295.4z"/>
				<path class="st26" d="M363,295.8c-0.6-1.1-0.9-2.4-1.1-3.7c-0.2-1.3-0.2-2.6-0.1-3.9c0.3-2.6,1.1-5.1,2.1-7.4l0.7,1.2
					c-1.2-0.1-2.3-1-2.8-1.9s-0.8-1.9-1.1-2.8c-0.4-1.9-0.6-3.7-0.5-5.6s0.4-3.8,1.1-5.5c0.6-1.8,1.6-3.4,2.6-4.9
					c0.5-0.7,0.8-1.5,0.9-2.4s0-1.8,0-2.7c0-1.9,0.6-3.7,1.2-5.4c1.2-3.4,2.5-6.8,3-10.2c0.3-1.7,0.5-3.5,0.8-5.4
					c0.3-1.8,0.8-3.7,1.7-5.4c1.8-3.5,4.7-5.9,6.9-8.6c2.3-2.7,4.5-5.5,6.8-8.3c2.4-2.8,4.6-5.5,7.1-8.2l0.2,0.1
					c-0.9,1.5-2,3-2.9,4.6c-1,1.5-2.1,3-3.1,4.5c-2,3-4.1,6-6.4,8.8c-2.3,2.9-5,5.3-6.6,8.2c-1.7,2.9-1.9,6.5-2.8,10.1
					c-0.2,0.9-0.5,1.8-0.7,2.7c-0.3,0.9-0.6,1.7-1,2.6c-0.7,1.7-1.5,3.3-2.2,5c-0.7,1.6-1.4,3.3-1.4,5.1c0,0.9,0,1.8,0,2.7
					c-0.1,0.9-0.4,1.9-0.9,2.7c-1.9,3.1-2.8,6.6-2.6,10c0,0.9,0.1,1.7,0.2,2.6s0.2,1.7,0.4,2.6c0.3,1.6,1,3.3,2.2,3.4l1.2,0.2
					l-0.5,1.1c-1.1,2.2-2,4.5-2.5,6.9c-0.3,1.2-0.4,2.4-0.4,3.6s0.2,2.5,0.5,3.7L363,295.8z"/>
				<path class="st26" d="M413.6,188.1c1,0.6,2,1.3,2.9,2.2s1.6,1.8,2.3,2.9c1.3,2.1,2.2,4.5,2.7,6.9c1.1,4.9,1,9.8,0.7,14.7
					c-0.2,2.4-0.4,4.9-0.7,7.3l-0.8,7.2c-0.5,4.8-1.2,9.6-1.5,14.3c-0.2,2.4-0.4,4.8-0.4,7.1c-0.1,2.3,0.1,4.7,0.3,7
					c0.4,4.7,1.4,9.4,2.1,14.2c0.4,2.4,0.7,5,0.5,7.4c-0.2,2.5-0.6,4.9-1.2,7.3c-1.2,4.7-2.7,9.3-3.2,14.1c-0.1-4.9,1-9.7,1.7-14.4
					c0.4-2.4,0.6-4.7,0.6-7.1l-0.1-1.7l-0.2-1.7l-0.3-1.7l-0.4-1.8c-1-4.7-2.1-9.4-2.7-14.3c-0.3-2.4-0.4-4.9-0.4-7.4
					s0.2-4.9,0.3-7.3c0.4-4.9,1.1-9.7,1.7-14.5l2-14.3c0.5-4.7,0.9-9.5,0.2-14.2c-0.3-2.3-0.9-4.6-2-6.7c-0.5-1.1-1.2-2.1-1.9-3
					C415.5,189.7,414.6,188.8,413.6,188.1z"/>
				<path class="st26" d="M229.3,192.7c0.8,2.6,1.6,5.2,2.6,7.7s2.2,5,3.5,7.4c2.6,4.8,5.7,9.2,9.5,13l0.2,0.2v0.3
					c0.2,1.3,0.4,2.5,0.7,3.7s0.6,2.4,1.1,3.5c0.9,2.3,2,4.5,3.4,6.5l0.2,0.3l-0.1,0.4c-0.2,1.4-0.5,2.7-0.6,4.1
					c-0.1,1.3-0.2,2.8-0.2,4.1c-0.1,2.8,0,5.5,0.3,8.2c0.7,5.4,2.7,10.6,5.3,15.5l0.1,0.2v0.2c0.1,5.4-0.3,10.9-1.4,16.2
					c-0.6,2.7-1.4,5.3-2.5,7.7c-1.1,2.5-2.5,4.8-4.2,6.9c1.5-2.3,2.7-4.7,3.6-7.2c0.9-2.5,1.5-5.1,2-7.7c0.9-5.2,1-10.6,0.8-15.9
					l0.1,0.4c-2.7-4.9-5-10.3-5.8-16.1c-0.4-2.9-0.5-5.7-0.4-8.6c0-1.4,0.1-2.8,0.2-4.3c0.2-1.5,0.4-2.9,0.7-4.2l0.2,0.8
					c-1.5-2.1-2.7-4.5-3.6-7c-0.4-1.2-0.8-2.5-1.1-3.8s-0.5-2.6-0.6-3.8l0.2,0.5c-3.8-4.1-6.9-8.8-9.2-13.8c-1.2-2.5-2.2-5.1-3-7.7
					C230.5,198,229.8,195.4,229.3,192.7z"/>
			</g>
			<path class="st27" d="M373.9,161.3c1.5,0.5,3,1,4.5,1.6s2.9,1.4,4.3,2.2c2.8,1.5,5.5,3.2,8.3,4.8c2.7,1.7,5.3,3.5,7.8,5.6
				c2.4,2.1,4.7,4.5,6.4,7.2c-2.4-2.2-4.9-4.1-7.4-5.9c-1.3-0.9-2.6-1.8-3.9-2.6c-1.3-0.9-2.6-1.7-4-2.5c-2.7-1.7-5.4-3.4-8-5.2
				c-1.3-0.9-2.6-1.9-3.9-2.6C376.7,163,375.3,162.2,373.9,161.3z"/>
			<g>
				<path class="st13" d="M147.7,376c-2.8-6-5.6-12-8.3-18s-5.5-12-8.2-18l-8.1-18.1l-4.1-9l-1-2.3c-0.2-0.4-0.3-0.7-0.5-1.2
					s-0.3-1-0.4-1.6c-0.2-2.2,1.2-4.5,3.3-5.3c0.5-0.2,1.1-0.3,1.6-0.4c0.3,0,0.6,0,0.8,0l0.6,0.1l2.5,0.2l4.9,0.5l9.9,1l19.7,2
					l19.7,2l9.9,1l4.9,0.5l2.5,0.3l1.2,0.1l0.6,0.1h0.3h0.1h0.1l0,0c0.1,0.5,0.2-1.3-1.6,1.5l1.7-1.5l33,3.7l16.5,2l4.1,0.5
					c1.4,0.1,3,0.6,4.3,1.4s2.5,1.9,3.3,3.2c0.4,0.6,0.7,1.3,1,2.1c0.2,0.7,0.4,1.3,0.6,2c3.3,10.6,6.4,21.2,9.7,31.8l10,31.7
					l-10.5-31.5c-3.5-10.5-7.3-20.9-10.8-31.4c-0.2-0.6-0.4-1.3-0.7-1.9c-0.2-0.6-0.5-1.1-0.8-1.6c-0.7-1-1.6-1.9-2.7-2.5
					s-2.2-0.9-3.6-1l-4.1-0.4l-16.6-1.5l-33.1-3.2l1.7-1.5c-1.8,2.8-1.8,1-1.7,1.5h-0.1h-0.1H199h-0.3l-0.6-0.1l-1.2-0.1l-2.5-0.2
					l-4.9-0.5l-9.9-1l-19.7-2.1l-19.7-2.1l-9.8-1.1l-4.9-0.6l-2.5-0.3l-0.6-0.1c-0.1,0-0.3,0-0.4,0c-0.3,0-0.5,0.1-0.8,0.2
					c-1,0.4-1.7,1.5-1.7,2.6c0,0.3,0.1,0.5,0.2,0.8s0.3,0.7,0.5,1.1l1,2.3l3.8,9.1l7.6,18.3c2.6,6.1,5,12.2,7.5,18.3
					C142.8,363.8,145.3,369.9,147.7,376z"/>
			</g>
			<path class="st28" d="M373.9,161.3c-0.6,5.4-1.5,10.9-2.5,16.3c-3.1,17.8-8.1,34.4-14.8,51.1c-4.8,11.9-9.7,23-20.4,30.9
				c-1.4-5-3.4-9.6-5.5-14.3c1.6-2.6,2.6-6.8,2.5-9.2c-1.3,1.7-3.3,2.4-5.2,3.2c-0.5-1.1-1-2.3-1.4-3.5
				c10.8-11.2,11.5-24.6,9.3-39.6c-0.4-2.8-0.9-5.5-1.4-8.2c-0.9-5.3-1.9-10.6-2.4-16c-0.4-5.2-0.5-10.3-0.4-15.5
				c0.1-6.2,0.6-12.3,1-18.5c0.4-5.3,0.9-10.7,1.2-16.1c0.6-8.7,0.7-17.3-0.9-25.9c-0.3-1.4-0.6-2.7-0.9-4.1
				c-3.2-1.5-6.4-3.1-9.6-4.6c-6.2-3-11.6-7.1-17.3-11c-2.8-1.9-5.9-4-8.5-6.5c-2.2,0.3-4.4,0.6-6.6,0.8c-3.3,0.2-7.8,0.1-10.4,2.5
				s-3,6.7-3.4,9.9c-0.6,6.1-0.1,12.5-0.7,18.7c-0.6,6.7,0,12.3,1.7,18.7c1.1,4.2,2.8,8.1,5.1,11.7c-1.1,4.5-2.3,8.9-3.3,13.4
				c-1.4,6.5-1.9,13.1-2.8,19.7c-0.4,3.1-0.8,6.3-1,9.4c-0.5,6.6-0.4,13.3,1,19.8c2.4,11.7,13.9,21.6,13.8,33.4
				c-0.1,4.5-6.4,8-10.7,9.3l0,0c-7.3-5.6-13.2-12.9-17.1-21.2c-0.7,7.7,1.6,15.6,6.1,21.8c-0.8,0-1.5,0.1-2.2,0.1
				c-4.2,0.5-8.1,1-10.9,4.3c-2.3-2.3-4.2-4.5-5.8-6.7c-2.8-4-4.5-8.2-5.2-14c0-0.1,0-0.1,0-0.2c-0.8-5.6-1.2-10.9-0.4-16.6
				c1.5-11,6.4-20.9,9.8-31.4c1.8-5.7,3.1-11.6,4.1-17.5c1.9-11.2,2.7-22.7,4.2-33.9c2-15.1,1.4-31.2,7.2-45.5
				c3.4-8.5,8.8-16.7,14.4-23.9c3-3.9,6.8-6.9,10.9-9.6c4.1-2.7,7.7-5.7,12.8-4.1c9.5-5.3,25-1.1,33.1,5.5
				c11.9,9.7,16.1,24.5,19.9,38.8c2.2,8.4,4.3,16.8,6.6,25.2c2.7,10.3,6.5,20.2,7.6,30.8C375.1,146.6,374.8,154,373.9,161.3z"/>
			
				<linearGradient id="SVGID_5_" gradientUnits="userSpaceOnUse" x1="308.1211" y1="390.3681" x2="286.0796" y2="405.8973" gradientTransform="matrix(1 0 0 -1 0 561.2756)">
				<stop  offset="0" style="stop-color:#FFFFFF"/>
				<stop  offset="1" style="stop-color:#000000"/>
			</linearGradient>
			<path class="st29" d="M334.5,188c-5.7,3.3-11.7,5.3-18.6,6.2c-8.9,1.2-17.5,0.2-25.1-4.7c-3.4-2.2-6.9-4.6-9.8-7.5
				c-2.1-2.2-3.9-4.8-5.7-7.2c0.2-3.2,0.6-6.3,1-9.4c0.9-6.6,1.3-13.2,2.8-19.7c1-4.5,2.2-8.9,3.3-13.4c0.3,0.4,0.5,0.9,0.8,1.3
				c3,4.3,5.2,9.6,8.4,13.8c0.7,0.9,1.5,1.8,2.3,2.5l0,0c1.4,4.5,5.1,7.6,9.7,9.5c5.5,2.3,12.2,2.8,17.3,1.7
				c1.9-0.4,3.9-0.9,5.7-1.5c1.9-0.7,3.5-1.8,5.1-3c-0.1,5.2,0,10.3,0.4,15.5C332.6,177.4,333.5,182.7,334.5,188z"/>
			
				<linearGradient id="SVGID_6_" gradientUnits="userSpaceOnUse" x1="226.5777" y1="318.0509" x2="322.7588" y2="294.757" gradientTransform="matrix(1 0 0 -1 0 561.2756)">
				<stop  offset="0" style="stop-color:#FFFFFF"/>
				<stop  offset="1" style="stop-color:#000000"/>
			</linearGradient>
			<path class="st30" d="M247.3,298.9c-0.7,1-1.4,2.1-2,3.3c-0.4-3.6-2-7.2-4.4-9.9c-4.4-5-11.2-7.5-17.9-7.5
				c-7.2,0-14.4,2.7-19.5,7.8c-3.9,3.9-6.4,9.1-7,14.6c-1.6-2.8-2.7-5.9-2.2-9.3c0.4-2.3,1.5-4.2,2.2-6.4c1-2.8,0.4-5.7,0.8-8.6
				c0.6-4.9,4.2-6.6,6.6-10.6c5-8.5-6.3-18,2.2-24.8c4.1-3.3,5.5-1.2,4.7-7c-0.6-4.5-0.2-9,1.6-13.2c0.9-2.1,2-4,2.8-6.1
				c1.7-4.8,0.9-10.8,1-15.8c0.1-5.9,0.4-11.9,1.5-17.8c1.3-7.3,4.1-11.5,10.5-14.5c0.4-0.2,0.7-0.3,1-0.5c-0.5,6.8-1.6,13.3,0,20.3
				c2.4,10,7.4,21,15,28.8c0,0.1,0,0.1,0,0.2c0.8,5.7,2.5,10,5.2,14c-0.3,1.7-0.7,3.4-0.8,5.2c-0.2,3.6-0.2,7.6,0.2,11.3
				c0.7,5.7,2.9,11,5.6,16.1C254.9,279,253.6,290.2,247.3,298.9z"/>
			<g>
				<path class="st28" d="M302.5,102.9c2.2-0.9,4.4-1.9,6.7-2.8c2.1-0.9,4.3-1.7,6.6-1.7c2,0.1,3.8,0.8,5.7,1.6L302.5,102.9z"/>
				<path class="st28" d="M298.3,104.1l4-1.7c2.2-0.9,4.5-1.9,6.7-2.8c2-0.8,4.4-1.8,6.9-1.7c2.1,0.1,4.1,0.9,5.9,1.6l1.8,0.7
					L298.3,104.1z M315.5,99c-2,0-3.9,0.7-6.2,1.6c-0.9,0.4-1.8,0.7-2.7,1.1l12.8-1.9c-1.2-0.4-2.4-0.8-3.7-0.8
					C315.7,99,315.6,99,315.5,99z"/>
			</g>
			<g>
				<path class="st28" d="M287.9,102.2c-1.6-1-3.1-2-4.8-2.9c-2.8-1.6-6.1-3.1-9.3-2.4L287.9,102.2z"/>
				<path class="st28" d="M292.2,104.5L272,96.7l1.8-0.4c3.4-0.7,6.8,0.9,9.6,2.5c1.6,0.9,3.2,1.9,4.8,3L292.2,104.5z M276.4,97.3
					l6.2,2.4C280.8,98.6,278.6,97.6,276.4,97.3z"/>
			</g>
			<g class="st31">
				<path class="st32" d="M305.6,110.4c0.6-0.5,1.5-0.5,2.2-0.4c0.8,0.1,1.5,0.3,2.1,0.5c1.3,0.3,2.6,0.4,3.9,0.4s2.6-0.2,4.1-0.3
					c1.5-0.1,3.1,0.2,4.3,1.2c-1.5-0.1-2.8,0.1-4.1,0.5c-0.7,0.2-1.3,0.3-2.1,0.5c-0.7,0.2-1.5,0.2-2.3,0.2c-1.5,0-3-0.3-4.4-0.9
					c-0.7-0.3-1.3-0.7-1.9-1C307,110.6,306.4,110.4,305.6,110.4z"/>
				<path class="st32" d="M314,113.7C313.9,113.7,313.9,113.7,314,113.7c-1.8,0-3.4-0.4-4.8-1c-0.5-0.2-1-0.5-1.3-0.7
					c-0.2-0.1-0.4-0.2-0.6-0.3c-0.5-0.3-1-0.5-1.5-0.5l-2.3,0.1l1.8-1.5c0.8-0.7,2-0.7,2.9-0.6c0.5,0.1,1,0.2,1.4,0.3
					c0.3,0.1,0.5,0.1,0.7,0.2c1.2,0.2,2.4,0.4,3.8,0.4c0.7,0,1.4-0.1,2.2-0.1c0.6-0.1,1.2-0.1,1.9-0.1c1.9-0.1,3.7,0.4,4.8,1.4
					l1.9,1.6l-2.5-0.2c-1.5-0.1-2.7,0.1-3.8,0.4c-0.5,0.2-1.1,0.3-1.7,0.4l-0.4,0.1C315.6,113.6,314.7,113.7,314,113.7z
					 M309.5,111.1c0.1,0,0.2,0.1,0.3,0.1c1.3,0.6,2.7,0.9,4.1,0.9c0.7,0,1.4-0.1,2.1-0.2l0.4-0.1c0.5-0.1,1.1-0.2,1.6-0.4
					c0.1,0,0.2-0.1,0.4-0.1c-0.1,0-0.2,0-0.3,0c-0.6,0-1.2,0.1-1.8,0.1c-0.8,0.1-1.6,0.1-2.3,0.1c-1.4,0-2.8-0.1-4.1-0.4
					C309.7,111.2,309.6,111.2,309.5,111.1z"/>
			</g>
			<g class="st31">
				<path class="st32" d="M277.8,110.8c0.8-1,2.2-1.5,3.4-1.7c1.3-0.2,2.5-0.1,3.5-0.2c1.1-0.1,2.3-0.3,3.6-0.2
					c1.3,0.1,2.8,0.5,3.5,1.6c-1.2-0.3-2.3-0.2-3.4,0s-2.2,0.6-3.5,0.7s-2.5-0.1-3.6-0.3C280.1,110.7,279,110.6,277.8,110.8z"/>
				<path class="st32" d="M275.9,112.1l1.3-1.7c0.8-1,2.2-1.7,4-2c0.9-0.1,1.7-0.1,2.4-0.2c0.4,0,0.8,0,1.2,0c0.3,0,0.7-0.1,1-0.1
					c0.8-0.1,1.7-0.2,2.7-0.1c0.9,0.1,3,0.3,4.1,2l1.1,1.8l-2-0.6c-1.1-0.3-2-0.2-3,0c-0.3,0.1-0.6,0.1-0.9,0.2
					c-0.8,0.2-1.7,0.4-2.7,0.5c-1.2,0.1-2.3-0.1-3.3-0.2l-0.5-0.1c-1.1-0.1-2-0.3-3.2,0L275.9,112.1z M281,110c0.1,0,0.2,0,0.3,0
					l0.5,0.1c1,0.1,2,0.3,3,0.2c0.9-0.1,1.7-0.2,2.5-0.4c0.3-0.1,0.6-0.1,1-0.2c0.1,0,0.2,0,0.3-0.1c-0.1,0-0.2,0-0.3,0
					c-0.8,0-1.6,0-2.4,0.1c-0.4,0-0.7,0.1-1.1,0.1s-0.8,0-1.2,0c-0.7,0-1.5,0-2.3,0.1C281.2,110,281.1,110,281,110z"/>
			</g>
		</g>
	</g>
</g>
</svg>
